<svg xmlns="http://www.w3.org/2000/svg" data-name="Capa 2" viewBox="0 0 55.08 78.51"><g data-name="Capa 1"><path d="M24.63 78.51V60.83L16.46 69l5.43-20.68s-6.45-.59-6.48-5.65c0-1.31.5-2.56 1.28-3.61 5.65-7.52 10.56-13.59 10.56-13.59V0S-1.94 30.36.1 48.91s21.15 28.04 24.53 29.6" style="fill:#139d82"/><path d="M32.08 23.83 18.87 43.55h7.79l-4.79 15.71 13.72-20H28z" style="fill:#9ec534"/><path d="M30.29 53.28v24.77s20.72-7.49 24.47-27.23C57.14 37.97 45.99 20.18 29.14.86v22.21l8.68-9.79-5.11 21.53s4.97.57 6.13 3.66c.7 1.87 1.02 4.77-8.55 14.81" style="fill:#a5c83c"/></g></svg>