<?xml version="1.0" encoding="UTF-8"?>
<svg id="Capa_2" data-name="Capa 2" xmlns="http://www.w3.org/2000/svg" viewBox="0 0 120.22 113.33">
  <defs>
    <style>
      .cls-1 {
        fill: #9ec534;
      }

      .cls-2 {
        fill: #44494c;
      }

      .cls-3 {
        fill: #139d82;
      }

      .cls-4 {
        fill: #a5c83c;
      }
    </style>
  </defs>
  <g id="Capa_1-2" data-name="Capa 1">
    <g>
      <g>
        <path class="cls-3" d="M56.29,78.51v-17.68l-8.17,8.17,5.43-20.68s-6.45-.59-6.48-5.65c0-1.31.5-2.56,1.28-3.61,5.65-7.52,10.56-13.59,10.56-13.59V0s-29.19,30.36-27.15,48.91c2.04,18.55,21.15,28.04,24.53,29.6Z"/>
        <polygon class="cls-1" points="63.74 23.83 50.52 43.55 58.31 43.55 53.52 59.26 67.25 39.26 59.65 39.26 63.74 23.83"/>
        <path class="cls-4" d="M61.95,53.28v24.77s20.72-7.49,24.47-27.23c2.38-12.85-8.77-30.64-25.62-49.96v22.21l8.68-9.79-5.11,21.53s4.97.57,6.13,3.66c.7,1.87,1.02,4.77-8.55,14.81Z"/>
      </g>
      <text/>
      <g>
        <path class="cls-2" d="M0,113.11v-19.35h14.62v3.59H4.45v12.16h10.53v3.59H0ZM4.12,105.04v-3.51h9.32v3.51H4.12Z"/>
        <path class="cls-2" d="M25.32,113.33c-1.6,0-3.03-.33-4.27-.98-1.24-.65-2.22-1.56-2.93-2.72-.71-1.16-1.06-2.48-1.06-3.95s.35-2.81,1.06-3.95c.71-1.14,1.69-2.05,2.93-2.71,1.24-.66,2.67-1,4.27-1s2.93.33,4.1.98c1.17.65,2.01,1.58,2.53,2.78l-3.32,1.82c-.41-.7-.89-1.21-1.47-1.53-.57-.32-1.2-.48-1.88-.48-.72,0-1.37.16-1.96.48-.59.32-1.06.79-1.41,1.4-.35.61-.53,1.35-.53,2.21s.18,1.61.53,2.23c.35.62.82,1.09,1.41,1.41.59.32,1.24.48,1.96.48.68,0,1.31-.16,1.88-.48.57-.32,1.06-.84,1.47-1.56l3.32,1.82c-.52,1.18-1.36,2.1-2.53,2.76s-2.54,1-4.1,1Z"/>
        <path class="cls-2" d="M41.33,113.33c-1.57,0-2.96-.33-4.19-1-1.23-.66-2.19-1.57-2.89-2.72s-1.05-2.46-1.05-3.94.35-2.81,1.05-3.97c.7-1.15,1.66-2.05,2.89-2.71,1.23-.65,2.62-.98,4.19-.98s2.99.33,4.23.98c1.23.65,2.2,1.56,2.9,2.71.7,1.15,1.05,2.47,1.05,3.97s-.35,2.81-1.05,3.95-1.67,2.05-2.9,2.71c-1.24.66-2.64,1-4.23,1ZM41.33,109.8c.74,0,1.39-.16,1.95-.48.56-.32,1.01-.8,1.35-1.42.34-.63.51-1.36.51-2.21s-.17-1.6-.51-2.21c-.34-.61-.79-1.07-1.35-1.4-.56-.32-1.2-.48-1.92-.48s-1.36.16-1.93.48c-.57.32-1.03.79-1.37,1.4-.34.61-.51,1.35-.51,2.21s.17,1.59.51,2.21c.34.63.8,1.1,1.37,1.42.57.32,1.21.48,1.91.48Z"/>
        <path class="cls-2" d="M56.25,113.11l-6.36-19.35h4.64l5.5,17.14h-2.32l5.75-17.14h4.15l5.53,17.14h-2.24l5.64-17.14h4.28l-6.36,19.35h-4.75l-4.92-15.04h1.27l-5.03,15.04h-4.78Z"/>
        <path class="cls-2" d="M86.49,113.33c-1.14,0-2.13-.2-2.96-.59s-1.47-.94-1.92-1.62c-.45-.68-.68-1.45-.68-2.29s.22-1.64.65-2.31c.43-.67,1.12-1.19,2.06-1.56.94-.37,2.17-.55,3.7-.55h3.93v2.49h-3.48c-1.01,0-1.71.17-2.09.5-.38.33-.57.75-.57,1.24,0,.55.22.99.65,1.31.43.32,1.02.48,1.76.48s1.4-.17,1.98-.5c.58-.33.99-.84,1.23-1.52l.66,2.02c-.31.92-.88,1.64-1.71,2.14-.83.51-1.9.76-3.21.76ZM91.03,113.11v-2.9l-.28-.64v-5.2c0-.92-.28-1.64-.84-2.16-.56-.52-1.42-.77-2.58-.77-.79,0-1.57.12-2.34.37-.76.25-1.42.58-1.98,1.01l-1.52-3.01c.81-.59,1.79-1.04,2.93-1.34,1.14-.3,2.3-.46,3.48-.46,2.27,0,4.03.53,5.28,1.6,1.25,1.07,1.88,2.74,1.88,5v8.49h-4.04Z"/>
        <path class="cls-2" d="M97.19,101.56v-3.32h10.31v3.32h-10.31ZM105.04,113.33c-1.75,0-3.11-.45-4.09-1.34-.98-.89-1.46-2.23-1.46-3.99v-13.05h4.34v12.96c0,.63.16,1.12.48,1.46.32.35.76.53,1.31.53.7,0,1.29-.18,1.77-.55l1.13,3.04c-.42.31-.94.55-1.56.71-.62.16-1.26.23-1.92.23Z"/>
        <path class="cls-2" d="M108.88,101.56v-3.32h10.31v3.32h-10.31ZM116.73,113.33c-1.75,0-3.11-.45-4.09-1.34-.98-.89-1.46-2.23-1.46-3.99v-13.05h4.34v12.96c0,.63.16,1.12.48,1.46.32.35.76.53,1.31.53.7,0,1.29-.18,1.77-.55l1.13,3.04c-.42.31-.94.55-1.56.71-.62.16-1.26.23-1.92.23Z"/>
      </g>
    </g>
  </g>
</svg>